<svg width="23" height="23" viewBox="0 0 23 23" fill="none" xmlns="http://www.w3.org/2000/svg">
<g clip-path="url(#clip0_187_255)">
<path d="M18.2351 6.06502C18.6085 5.69161 18.6085 5.08621 18.2351 4.71279C17.8617 4.33937 17.2563 4.33939 16.8829 4.71279L11.474 10.1217L6.06506 4.71279C5.69166 4.33939 5.08625 4.33937 4.71284 4.71279C4.33942 5.08621 4.33943 5.69161 4.71284 6.06502L10.1217 11.4739L4.71284 16.8828C4.33942 17.2562 4.33942 17.8616 4.71284 18.2351C5.08626 18.6085 5.69165 18.6085 6.06506 18.2351L11.474 12.8261L16.8829 18.2351C17.2563 18.6085 17.8617 18.6085 18.2351 18.2351C18.6085 17.8616 18.6085 17.2562 18.2351 16.8828L12.8262 11.4739L18.2351 6.06502Z" fill="white"/>
</g>
<defs>
<clipPath id="clip0_187_255">
<rect width="22.948" height="22.948" fill="white"/>
</clipPath>
</defs>
</svg>
